<?xml version="1.0" encoding="UTF-8"?>
<svg version="1.1" xmlns="http://www.w3.org/2000/svg" width="217" height="240">
<path d="M0 0 C71.61 0 143.22 0 217 0 C217 79.2 217 158.4 217 240 C145.39 240 73.78 240 0 240 C0 160.8 0 81.6 0 0 Z " fill="#101E1E" transform="translate(0,0)"/>
<path d="M0 0 C71.61 0 143.22 0 217 0 C217 79.2 217 158.4 217 240 C145.39 240 73.78 240 0 240 C0 160.8 0 81.6 0 0 Z M58.3125 20.5 C57.62969971 20.76208252 56.94689941 21.02416504 56.2434082 21.29418945 C36.93630118 29.07286542 23.02562306 43.11030401 14.6875 62.1875 C11.38691071 69.95518822 9.70121271 76.99027529 9.69360352 85.36523438 C9.68528 86.16000183 9.67695648 86.95476929 9.66838074 87.77362061 C9.64444732 90.38038155 9.63552657 92.98689109 9.62890625 95.59375 C9.61992313 97.42728746 9.61080102 99.26082424 9.60154724 101.09436035 C9.58509683 104.93401866 9.57736508 108.77359024 9.57446289 112.61328125 C9.56910138 117.4904366 9.53149691 122.36675497 9.48571873 127.24367523 C9.45570038 131.0325402 9.44873391 134.82121028 9.44773674 138.61018372 C9.4435788 140.40562244 9.43132679 142.20106421 9.41021919 143.99638367 C9.18273826 165.0284457 14.93053753 183.35586928 29.80078125 198.83203125 C30.88939453 199.90517578 30.88939453 199.90517578 32 201 C32.61230469 201.62261719 33.22460938 202.24523437 33.85546875 202.88671875 C45.76191393 214.18387889 62.39272135 221.09280951 78.77124023 221.14526367 C79.43223221 221.14862228 80.09322418 221.1519809 80.77424622 221.15544128 C82.95238142 221.1649113 85.13043925 221.16689317 87.30859375 221.16796875 C88.83732636 221.17118676 90.36605867 221.17455124 91.89479065 221.17805481 C95.10166129 221.18403816 98.30850503 221.1858958 101.51538086 221.18530273 C105.58653397 221.18520178 109.65751006 221.1987884 113.72862148 221.21607494 C116.89031229 221.22730748 120.05196203 221.22921844 123.21367073 221.22869301 C124.7120836 221.22985878 126.21049803 221.23419982 127.70889091 221.24202538 C152.11778967 221.35745716 171.31754392 216.28366867 189.375 199.125 C201.67961797 186.26108121 209.15644917 169.83902818 209.14526367 152.02612305 C209.14862228 151.24966431 209.1519809 150.47320557 209.15544128 149.67321777 C209.16490016 147.11936826 209.16689189 144.56558467 209.16796875 142.01171875 C209.17118502 140.22581455 209.17454936 138.43991061 209.17805481 136.65400696 C209.18403354 132.91426991 209.18589602 129.17455594 209.18530273 125.43481445 C209.18520122 120.66033989 209.1988477 115.88601441 209.21607494 111.11157513 C209.22723467 107.42337881 209.22922072 103.73521807 209.22869301 100.04700661 C209.22986736 98.28768208 209.23425829 96.52835646 209.24202538 94.76904869 C209.32934336 72.94696937 204.13226089 54.59376172 188.65625 38.65625 C187.7796875 37.7796875 186.903125 36.903125 186 36 C185.3915625 35.3915625 184.783125 34.783125 184.15625 34.15625 C168.80015175 20.00455161 149.84700365 16.66707663 129.80859375 16.76953125 C128.25260964 16.77072641 126.6966248 16.7711755 125.14064026 16.7709198 C121.89555273 16.77247517 118.65057699 16.78069178 115.40551758 16.79418945 C111.26791866 16.81119189 107.13044193 16.81500271 102.99281216 16.81424427 C99.78500729 16.81451753 96.57722856 16.82002335 93.36943245 16.82724571 C91.84456644 16.83040357 90.31969751 16.83239296 88.79482841 16.83313942 C73.26593847 16.76967758 73.26593847 16.76967758 58.3125 20.5 Z " fill="#081818" transform="translate(0,0)"/>
<path d="M0 0 C0.76008047 -0.00282738 1.52016094 -0.00565475 2.30327415 -0.00856781 C6.32417513 -0.02347895 10.34504096 -0.03275991 14.3659668 -0.03710938 C18.48435632 -0.04258893 22.60241444 -0.06662931 26.72070026 -0.09508133 C29.92004803 -0.11384251 33.11931796 -0.11892037 36.31871605 -0.12044525 C37.8355408 -0.12344087 39.35236522 -0.13136258 40.8691349 -0.14463043 C49.98265958 -0.21867822 58.26671955 0.46041898 67.01171875 3.203125 C68.790625 3.75033203 68.790625 3.75033203 70.60546875 4.30859375 C90.14592757 11.58373769 104.05816244 25.23847829 112.82421875 44.015625 C116.63161638 52.81633099 118.16303469 60.69518773 118.15698242 70.30639648 C118.16034103 71.08460754 118.16369965 71.8628186 118.16716003 72.66461182 C118.17660038 75.2178307 118.17860948 77.77098354 118.1796875 80.32421875 C118.18290429 82.11108934 118.18626868 83.89795967 118.18977356 85.68482971 C118.19574709 89.42278657 118.19761523 93.16072035 118.19702148 96.89868164 C118.19691983 101.67434682 118.21058377 106.44986345 118.22779369 111.22549343 C118.23894232 114.91364718 118.24093983 118.60176529 118.24041176 122.28993416 C118.2415871 124.0500852 118.24598372 125.8102373 118.25374413 127.57037163 C118.26360444 130.03717183 118.26064261 132.50365302 118.25463867 134.97045898 C118.26025818 135.68810928 118.26587769 136.40575958 118.27166748 137.14515686 C118.16721472 154.13923173 109.47912905 170.50985437 97.859375 182.4140625 C79.55071627 200.34599986 59.98153069 204.3256855 35.25 204.44140625 C34.13342042 204.44751954 34.13342042 204.44751954 32.99428368 204.45375633 C29.05421619 204.47448451 25.11418216 204.48884301 21.17407227 204.49829102 C17.15118664 204.50933205 13.12885754 204.5437435 9.10616779 204.58346272 C5.97018048 204.60986798 2.83432129 204.61800371 -0.30176735 204.62157249 C-1.7826393 204.6263764 -3.26350805 204.6378077 -4.74426842 204.65661049 C-25.01911625 204.89808998 -42.76894721 198.93245431 -57.98828125 185.203125 C-58.684375 184.59984375 -59.38046875 183.9965625 -60.09765625 183.375 C-70.99665268 173.32088702 -79.74636431 157.09708818 -81.18310356 142.18041992 C-81.2661868 140.06425318 -81.29275358 137.95568063 -81.29467773 135.83789062 C-81.30300125 135.04312317 -81.31132477 134.24835571 -81.31990051 133.42950439 C-81.34383393 130.82274345 -81.35275468 128.21623391 -81.359375 125.609375 C-81.36835812 123.77583754 -81.37748023 121.94230076 -81.38673401 120.10876465 C-81.40318442 116.26910634 -81.41091617 112.42953476 -81.41381836 108.58984375 C-81.41917987 103.7126884 -81.45678434 98.83637003 -81.50256252 93.95944977 C-81.53258087 90.1705848 -81.53954734 86.38191472 -81.54054451 82.59294128 C-81.54470245 80.79750256 -81.55695446 79.00206079 -81.57806206 77.20674133 C-81.79974025 56.71117949 -76.51639553 38.41100972 -62.0300293 23.23828125 C-60.69544621 21.88066058 -59.34250507 20.54115481 -57.98828125 19.203125 C-57.40433594 18.60886719 -56.82039063 18.01460937 -56.21875 17.40234375 C-40.42787026 2.57090987 -20.69217665 0.05230589 0 0 Z M-62.73828125 30.015625 C-64.18274008 32.05875725 -65.60094207 34.12078481 -66.98828125 36.203125 C-67.56707031 37.06679688 -68.14585938 37.93046875 -68.7421875 38.8203125 C-76.75092918 52.02771106 -77.60101215 67.22046663 -77.484375 82.25 C-77.48453063 83.92091942 -77.48603014 85.59183919 -77.48878479 87.26275635 C-77.49015497 90.73181496 -77.47784093 94.20045315 -77.45483398 97.66943359 C-77.42636395 102.07902359 -77.4292296 106.48792201 -77.4419241 110.89756393 C-77.44892961 114.33632147 -77.44103833 117.77492354 -77.42866707 121.21366119 C-77.42420601 122.83848725 -77.42376798 124.46333031 -77.42773247 126.08815765 C-77.45560454 147.53792913 -72.0801556 164.98033191 -56.64453125 180.5703125 C-43.52691284 192.89921335 -28.28212325 200.29034999 -10.0559082 200.34838867 C-9.05697289 200.35342659 -9.05697289 200.35342659 -8.03785706 200.35856628 C-5.85073952 200.36801224 -3.66369913 200.37001647 -1.4765625 200.37109375 C0.05792776 200.37431175 1.59241772 200.37767623 3.12690735 200.38117981 C6.34039012 200.38715594 9.55384606 200.38902137 12.76733398 200.38842773 C16.85781022 200.38832643 20.94811162 200.40195233 25.03854656 200.41919994 C28.2086921 200.4303959 31.37879646 200.43234459 34.54895973 200.43181801 C36.05543429 200.43298772 37.56191027 200.4373519 39.0683651 200.44515038 C61.98192944 200.55262595 78.83566837 194.83131815 95.69921875 179.078125 C110.46010124 163.79082017 114.8122859 145.49532103 114.67578125 124.890625 C114.67916129 123.064694 114.6840237 121.23876522 114.6902771 119.4128418 C114.69759264 115.61061909 114.68711683 111.808989 114.66357422 108.00683594 C114.63508948 103.17562157 114.65152238 98.34579679 114.68143654 93.51463318 C114.69965487 89.75148375 114.69368561 85.98865437 114.68079758 82.22549438 C114.67750352 80.44601265 114.68140664 78.66650017 114.69319534 76.88705444 C114.79656291 56.90840993 109.2059476 38.9549013 95.01171875 24.203125 C78.32524311 9.4411708 60.15666871 3.54548276 38.17578125 3.63671875 C36.60126383 3.63146126 35.02674954 3.62517719 33.45223999 3.61793518 C30.17634095 3.60761932 26.90087864 3.61196273 23.625 3.62670898 C19.47776014 3.64387278 15.33190921 3.62038541 11.18482399 3.58521938 C7.93974049 3.56299826 4.69497669 3.56474579 1.44984055 3.5729847 C-0.07680407 3.57379099 -1.60347545 3.567188 -3.13004684 3.55221367 C-25.92750623 3.36278924 -48.4072172 11.52855238 -62.73828125 30.015625 Z " fill="#1C3C3C" transform="translate(90.98828125,16.796875)"/>
<path d="M0 0 C4.39243685 -0.09976706 8.78425272 -0.17188558 13.17749023 -0.21972656 C14.66816718 -0.23969458 16.1587673 -0.2668792 17.64916992 -0.30175781 C34.07002725 -0.6760851 34.07002725 -0.6760851 41 4 C45.99300722 8.86161229 48.12124009 14.52428597 48.43359375 21.36328125 C48.45072265 23.34628062 48.45165526 25.32947718 48.4375 27.3125 C48.4674707 28.78493164 48.4674707 28.78493164 48.49804688 30.28710938 C48.49309369 37.77136763 47.37319463 45.11856245 42.30834961 50.9465332 C36.74263952 56.28086266 30.30561174 57.26013401 22.75390625 57.1953125 C22.09792953 57.1924826 21.44195282 57.18965271 20.76609802 57.18673706 C18.69803591 57.17565984 16.63042827 57.15058063 14.5625 57.125 C13.14909485 57.11495402 11.73568283 57.10583102 10.32226562 57.09765625 C6.88136606 57.07576184 3.44072748 57.04132051 0 57 C0 53.7 0 50.4 0 47 C2.64 47 5.28 47 8 47 C8 34.46 8 21.92 8 9 C5.36 9 2.72 9 0 9 C0 6.03 0 3.06 0 0 Z " fill="#5BC8C8" transform="translate(86,88)"/>
<path d="M0 0 C11 0 11 0 14.125 1.875 C18.24778446 6.54748905 17.22218814 11.85033334 17.25 17.8125 C17.270625 18.90626953 17.29125 20.00003906 17.3125 21.12695312 C17.31765625 22.18462891 17.3228125 23.24230469 17.328125 24.33203125 C17.34214355 25.78186401 17.34214355 25.78186401 17.35644531 27.26098633 C16.93447117 30.50353972 15.90625549 32.3660537 14 35 C9.28529813 37.91202175 6.02859801 37 0 37 C0 24.79 0 12.58 0 0 Z " fill="#101F1F" transform="translate(105,98)"/>
</svg>
